<svg width="118" height="51" viewBox="0 0 118 51" fill="none" xmlns="http://www.w3.org/2000/svg">
<g clip-path="url(#clip0_1793_5741)">
<path d="M41.1283 50.7165C40.8694 50.7165 40.6057 50.7002 40.3349 50.6677C40.0641 50.6351 39.8456 50.591 39.6841 50.5375V48.4458C39.9287 48.4993 40.228 48.5249 40.5796 48.5249C40.9857 48.5249 41.2874 48.4412 41.4846 48.2762C41.6817 48.1112 41.7791 47.8416 41.7791 47.4697V36.0793H44.5677V47.6278C44.5677 48.6109 44.2684 49.3708 43.6722 49.9077C43.076 50.4446 42.228 50.7142 41.1283 50.7142V50.7165ZM43.1639 34.8452C42.7292 34.8452 42.3563 34.6918 42.0451 34.3874C41.734 34.0829 41.5772 33.718 41.5772 33.2927C41.5772 32.8674 41.734 32.4863 42.0451 32.1888C42.3563 31.889 42.7292 31.7402 43.1639 31.7402C43.5986 31.7402 43.9881 31.889 44.2922 32.1888C44.5962 32.4886 44.7506 32.8558 44.7506 33.2927C44.7506 33.7297 44.5986 34.0829 44.2922 34.3874C43.9857 34.6942 43.6104 34.8452 43.1639 34.8452Z" fill="#3D194F"/>
<path d="M51.9145 46.654C50.8551 46.654 49.9002 46.4146 49.0451 45.9381C48.19 45.4617 47.5107 44.8156 47.0095 44.0068C46.5083 43.198 46.2565 42.287 46.2565 41.2783C46.2565 40.2697 46.5036 39.3563 47 38.5405C47.4941 37.7248 48.1734 37.0764 49.0356 36.5999C49.8979 36.1212 50.8575 35.8841 51.9145 35.8841C52.9715 35.8841 53.9335 36.1235 54.7933 36.5999C55.6556 37.0787 56.3325 37.7248 56.829 38.5405C57.323 39.3563 57.5724 40.2697 57.5724 41.2783C57.5724 42.287 57.3254 43.1957 56.829 44.0068C56.3325 44.8156 55.658 45.4594 54.8052 45.9381C53.9501 46.4169 52.9881 46.654 51.9145 46.654ZM51.9145 44.2834C52.4703 44.2834 52.9691 44.1509 53.4109 43.886C53.8527 43.621 54.2043 43.2585 54.4703 42.8006C54.7363 42.3428 54.867 41.8338 54.867 41.2783C54.867 40.7229 54.734 40.1976 54.4703 39.7444C54.2066 39.2935 53.8527 38.931 53.4109 38.6591C52.9691 38.3871 52.4703 38.25 51.9145 38.25C51.3587 38.25 50.8765 38.3871 50.4299 38.6591C49.9834 38.931 49.6295 39.2935 49.3705 39.7444C49.1116 40.1953 48.9834 40.7066 48.9834 41.2783C48.9834 41.8501 49.1116 42.3428 49.3705 42.8006C49.6271 43.2585 49.981 43.621 50.4299 43.886C50.8765 44.1509 51.3729 44.2834 51.9145 44.2834Z" fill="#3D194F"/>
<path d="M59.2803 46.4564V32.5188L62.0689 32.061V36.9207C62.9097 36.2699 63.9002 35.9445 65.0404 35.9445C66.0451 35.9445 66.9525 36.1839 67.7672 36.6604C68.5819 37.1368 69.228 37.7783 69.7102 38.5824C70.1924 39.3865 70.4323 40.286 70.4323 41.2807C70.4323 42.2754 70.1876 43.1748 69.7007 43.9789C69.2114 44.7831 68.5534 45.4199 67.7268 45.8917C66.9002 46.3635 65.9762 46.5982 64.9596 46.5982C64.4299 46.5982 63.9145 46.5262 63.4133 46.3797C62.9121 46.2333 62.4489 46.0218 62.0285 45.7429V46.4588H59.2803V46.4564ZM64.5914 44.2857C65.1758 44.2857 65.7007 44.1533 66.1686 43.8883C66.6366 43.6234 67.0071 43.2655 67.2779 42.8123C67.5487 42.3614 67.6841 41.8501 67.6841 41.2783C67.6841 40.7066 67.5487 40.193 67.2779 39.7351C67.0071 39.2773 66.6366 38.9194 66.1686 38.6591C65.7007 38.4011 65.1734 38.271 64.5914 38.271C64.076 38.271 63.6057 38.3546 63.1781 38.5196C62.7506 38.6847 62.38 38.9357 62.0689 39.2657V43.3073C62.3682 43.6117 62.7363 43.8511 63.1781 44.0231C63.6199 44.1951 64.0902 44.2811 64.5914 44.2811V44.2857Z" fill="#3D194F"/>
<path d="M76.0903 46.654C75.114 46.654 74.2114 46.5308 73.3848 46.2868C72.5582 46.0404 71.8385 45.6872 71.228 45.2223L72.6128 43.4095C73.2233 43.807 73.81 44.1068 74.3729 44.3067C74.9359 44.5065 75.4964 44.6065 76.0523 44.6065C76.677 44.6065 77.1758 44.5042 77.5487 44.2974C77.9216 44.0928 78.1093 43.8232 78.1093 43.4909C78.1093 43.2259 78.0048 43.0121 77.7934 42.8541C77.5819 42.6937 77.247 42.5822 76.7862 42.5148L74.7506 42.215C73.6912 42.0546 72.8907 41.7199 72.3492 41.2086C71.8052 40.6973 71.5344 40.0233 71.5344 39.1867C71.5344 38.5104 71.715 37.9293 72.0736 37.4436C72.4323 36.9602 72.9406 36.5813 73.6009 36.3094C74.2589 36.0375 75.0428 35.9004 75.9525 35.9004C76.7268 35.9004 77.4822 36.0073 78.2209 36.2188C78.9596 36.4303 79.6556 36.7557 80.3064 37.1949L78.962 38.9659C78.3777 38.608 77.8219 38.3477 77.2922 38.1896C76.7625 38.0293 76.228 37.9502 75.6841 37.9502C75.1829 37.9502 74.7791 38.0432 74.4727 38.2291C74.1663 38.4151 74.0143 38.6614 74.0143 38.9659C74.0143 39.2448 74.1235 39.4632 74.3397 39.6236C74.5558 39.784 74.9311 39.8955 75.4584 39.9629L77.4727 40.2627C78.5321 40.4091 79.3373 40.7368 79.8955 41.2481C80.4513 41.7594 80.7292 42.4195 80.7292 43.2283C80.7292 43.893 80.5249 44.4786 80.1188 44.9899C79.7126 45.5012 79.1615 45.9056 78.4703 46.2054C77.7791 46.5052 76.9857 46.654 76.0903 46.654Z" fill="#3D194F"/>
<path d="M16.437 19.7408C16.1948 19.211 15.8385 18.7438 15.399 18.3696C15.0522 18.0675 14.6508 17.8281 14.2114 17.6538C12.7553 17.0844 10.715 16.6777 9.01899 16.4337C7.53443 16.2245 6.48692 15.9967 5.8741 15.7504C5.26602 15.5017 4.95961 15.0276 4.95961 14.3234C4.95961 12.9429 6.12825 12.155 8.4608 12.2503C10.7672 12.3456 12.5297 13.0498 14.076 14.2304C14.342 14.4698 14.6864 14.6209 14.9525 14.2304L16.7387 11.9412C17.0047 11.5995 16.9786 11.3137 16.6579 11.0789C14.6152 9.22663 11.9216 8.30164 8.58194 8.30164C6.27077 8.30164 4.33728 8.8385 2.76958 9.90294C1.20426 10.972 0.422791 12.5245 0.422791 14.5558C0.422791 15.4692 0.581935 16.2756 0.900225 16.9798C0.900225 16.9845 0.904976 16.9891 0.907351 16.9984C1.14963 17.5283 1.50593 17.9931 1.94298 18.3696C2.29215 18.6718 2.69357 18.9111 3.13063 19.0831C4.58669 19.6525 6.62707 20.0616 8.3254 20.3056C9.80996 20.5124 10.8551 20.7402 11.4703 20.9889C12.0784 21.2376 12.3848 21.7117 12.3848 22.4182C12.3848 23.7987 11.2161 24.5866 8.8836 24.489C6.57719 24.3937 4.81471 23.6895 3.2684 22.5112C3.00236 22.2718 2.65557 22.1207 2.39191 22.5112L0.605688 24.7981C0.339655 25.142 0.365783 25.4256 0.686449 25.6603C2.7292 27.5126 5.42279 28.4376 8.76246 28.4376C11.0736 28.4376 13.0071 27.9008 14.5748 26.834C16.1401 25.7672 16.9216 24.2124 16.9216 22.1811C16.9216 21.2678 16.7625 20.4613 16.4442 19.7548C16.4442 19.7501 16.4394 19.7455 16.437 19.7385V19.7408Z" fill="#80297D"/>
<path d="M117.271 19.7408C117.028 19.211 116.672 18.7438 116.233 18.3696C115.886 18.0675 115.485 17.8281 115.045 17.6538C113.589 17.0844 111.549 16.6777 109.853 16.4337C108.368 16.2245 107.321 15.9967 106.708 15.7504C106.1 15.5017 105.793 15.0276 105.793 14.3234C105.793 12.9429 106.962 12.155 109.295 12.2503C111.601 12.3456 113.363 13.0498 114.91 14.2304C115.176 14.4698 115.52 14.6209 115.786 14.2304L117.572 11.9412C117.838 11.5995 117.812 11.3137 117.492 11.0789C115.449 9.22663 112.755 8.30164 109.416 8.30164C107.105 8.30164 105.171 8.8385 103.603 9.90294C102.038 10.972 101.257 12.5245 101.257 14.5558C101.257 15.4692 101.416 16.2756 101.734 16.9798C101.734 16.9845 101.739 16.9891 101.741 16.9984C101.983 17.5283 102.34 17.9931 102.777 18.3696C103.126 18.6718 103.527 18.9111 103.964 19.0831C105.42 19.6525 107.461 20.0616 109.159 20.3056C110.644 20.5124 111.689 20.7402 112.304 20.9889C112.912 21.2376 113.219 21.7117 113.219 22.4182C113.219 23.7987 112.05 24.5866 109.717 24.489C107.411 24.3937 105.648 23.6895 104.102 22.5112C103.836 22.2718 103.489 22.1207 103.226 22.5112L101.439 24.7981C101.173 25.142 101.2 25.4256 101.52 25.6603C103.563 27.5126 106.257 28.4376 109.596 28.4376C111.907 28.4376 113.841 27.9008 115.409 26.834C116.974 25.7672 117.755 24.2124 117.755 22.1811C117.755 21.2678 117.596 20.4613 117.278 19.7548C117.278 19.7501 117.273 19.7455 117.271 19.7385V19.7408Z" fill="#80297D"/>
<path d="M45.2898 0.220764H42.1734C41.81 0.220764 41.6295 0.392747 41.6295 0.739038V27.9449C41.6295 28.2912 41.81 28.4632 42.1734 28.4632H45.2898C45.6532 28.4632 45.8361 28.2912 45.8361 27.9449V0.739038C45.8361 0.392747 45.6532 0.220764 45.2898 0.220764Z" fill="#80297D"/>
<path d="M75.9525 0.220764H72.8361C72.4727 0.220764 72.2898 0.395071 72.2898 0.739038V10.2516C70.5487 8.98494 68.5131 8.35046 66.1877 8.35046C63.2922 8.35046 60.8551 9.33123 58.8812 11.2904C56.905 13.252 55.9169 15.6179 55.9169 18.3882C55.9169 21.1586 56.905 23.5965 58.8812 25.5441C60.8551 27.4917 63.2922 28.4655 66.1877 28.4655C68.5249 28.4655 70.5582 27.8403 72.2898 26.5946C72.7245 26.2832 73.1378 25.9323 73.5321 25.5441C75.5083 23.5965 76.4964 21.212 76.4964 18.3882V0.739038C76.4964 0.395071 76.3135 0.220764 75.9501 0.220764H75.9525ZM70.3492 22.7785C69.2518 23.9289 67.867 24.5029 66.19 24.5029C64.5131 24.5029 63.133 23.9266 62.0499 22.7785C60.9668 21.628 60.4252 20.1638 60.4252 18.3882C60.4252 16.6126 60.9668 15.181 62.0499 14.0166C63.133 12.8522 64.5107 12.2712 66.19 12.2712C67.8694 12.2712 69.2518 12.8592 70.3492 14.0375C71.4442 15.2135 71.9929 16.6638 71.9929 18.3882C71.9929 20.1127 71.4442 21.6304 70.3492 22.7785Z" fill="#80297D"/>
<path d="M52.4323 8.37372H49.3159C48.9525 8.37372 48.7719 8.5457 48.7719 8.89199V27.9473C48.7719 28.2936 48.9525 28.4655 49.3159 28.4655H52.4323C52.7957 28.4655 52.9786 28.2936 52.9786 27.9473V8.89199C52.9786 8.54803 52.7957 8.37372 52.4323 8.37372Z" fill="#80297D"/>
<path d="M96.4299 10.9697C94.5059 9.00817 92.1045 8.0274 89.2256 8.0274C86.3468 8.0274 83.7601 9.02909 81.7221 11.0278C79.6817 13.0289 78.6651 15.4599 78.6651 18.3208C78.6651 21.1818 79.6912 23.5803 81.7435 25.5139C83.7957 27.4476 86.3207 28.4144 89.3135 28.4144C92.7625 28.4144 95.6841 27.3011 98.0784 25.0747C98.3349 24.7841 98.3349 24.5192 98.0784 24.2798L95.9834 22.1347C95.7268 21.8418 95.4418 21.8418 95.1283 22.1347C93.6461 23.6988 91.7506 24.4797 89.4418 24.4797C87.8171 24.4797 86.4418 23.9823 85.3135 22.9899C84.1876 21.9952 83.5392 20.7054 83.3682 19.1157H98.6342C99.0332 19.1157 99.2328 18.9297 99.2328 18.5579C99.2898 15.4599 98.3563 12.9289 96.4323 10.9674L96.4299 10.9697ZM83.5368 16.4546C83.8788 15.102 84.5582 14.0166 85.5677 13.1939C86.5796 12.3735 87.7981 11.9621 89.2233 11.9621C90.5629 11.9621 91.7245 12.3804 92.7078 13.2148C93.6912 14.0491 94.3112 15.1298 94.5677 16.4546H83.5344H83.5368Z" fill="#80297D"/>
<path d="M29.2494 28.4167C26.3539 28.4167 23.9192 27.4429 21.9454 25.4953C19.9691 23.5477 18.9834 21.1632 18.9834 18.3394C18.9834 15.5156 19.9715 13.2032 21.9454 11.2416C23.9192 9.28008 26.3539 8.30164 29.2494 8.30164C32.1449 8.30164 34.5867 9.2824 36.5748 11.2416C38.5629 13.2032 39.5582 15.5668 39.5582 18.3394C39.5582 21.1121 38.5701 23.5477 36.5962 25.4953C34.6199 27.4429 32.1734 28.4167 29.2518 28.4167H29.2494ZM25.1093 22.732C26.19 23.8824 27.5701 24.4564 29.2494 24.4564C30.9287 24.4564 32.3135 23.8824 33.4085 22.732C34.5036 21.5815 35.0523 20.1173 35.0523 18.3417C35.0523 16.5661 34.5036 15.1647 33.4085 13.9887C32.3135 12.8127 30.9264 12.2247 29.2494 12.2247C27.5724 12.2247 26.1924 12.8057 25.1093 13.9701C24.0261 15.1345 23.4846 16.5917 23.4846 18.3417C23.4846 20.0918 24.0261 21.5839 25.1093 22.732Z" fill="#80297D"/>
<path d="M36.4703 0.220764C38.1734 0.220764 39.5582 1.57339 39.5582 3.24209V3.26998C39.5582 4.93636 38.1758 6.29131 36.4703 6.29131H33.3824V3.24442C33.3824 1.57804 34.7648 0.223088 36.4703 0.223088V0.220764Z" fill="#80297D"/>
<path d="M53.962 3.24209C53.962 1.57346 52.58 0.220764 50.8753 0.220764C49.1705 0.220764 47.7886 1.57346 47.7886 3.24209V3.26766C47.7886 4.93629 49.1705 6.28898 50.8753 6.28898C52.58 6.28898 53.962 4.93629 53.962 3.26766V3.24209Z" fill="#80297D"/>
</g>
<defs>
<clipPath id="clip0_1793_5741">
<rect width="118" height="51" fill="white"/>
</clipPath>
</defs>
</svg>
