<svg xmlns="http://www.w3.org/2000/svg" xmlns:xlink="http://www.w3.org/1999/xlink" width="80" zoomAndPan="magnify" viewBox="0 0 60 30.000001" height="40" preserveAspectRatio="xMidYMid meet" version="1.0"><defs><g><g id="id1"/></g><clipPath id="id2"><path d="M 44.324219 10.738281 L 51.582031 10.738281 L 51.582031 17.996094 L 44.324219 17.996094 Z M 44.324219 10.738281 " clip-rule="nonzero"/></clipPath></defs><g fill="rgb(85.879517%, 58.039856%, 40.779114%)" fill-opacity="1"><g transform="translate(2.362477, 17.244752)"><g><path d="M 4.203125 -5.75 C 4.253906 -5.84375 4.332031 -5.90625 4.4375 -5.9375 C 4.539062 -5.976562 4.671875 -6 4.828125 -6 C 4.984375 -6 5.109375 -5.984375 5.203125 -5.953125 C 5.296875 -5.921875 5.363281 -5.882812 5.40625 -5.84375 C 5.457031 -5.8125 5.492188 -5.757812 5.515625 -5.6875 C 5.546875 -5.59375 5.5625 -5.453125 5.5625 -5.265625 L 5.5625 -0.71875 C 5.5625 -0.59375 5.554688 -0.5 5.546875 -0.4375 C 5.546875 -0.375 5.523438 -0.300781 5.484375 -0.21875 C 5.398438 -0.0703125 5.1875 0 4.84375 0 C 4.625 0 4.472656 -0.015625 4.390625 -0.046875 C 4.316406 -0.078125 4.25 -0.128906 4.1875 -0.203125 C 2.957031 -1.835938 2.148438 -2.910156 1.765625 -3.421875 L 1.765625 -0.71875 C 1.765625 -0.59375 1.757812 -0.5 1.75 -0.4375 C 1.75 -0.375 1.722656 -0.300781 1.671875 -0.21875 C 1.597656 -0.0703125 1.390625 0 1.046875 0 C 0.703125 0 0.492188 -0.0703125 0.421875 -0.21875 C 0.378906 -0.300781 0.351562 -0.375 0.34375 -0.4375 C 0.332031 -0.507812 0.328125 -0.609375 0.328125 -0.734375 L 0.328125 -5.296875 C 0.328125 -5.503906 0.351562 -5.65625 0.40625 -5.75 C 0.457031 -5.84375 0.535156 -5.90625 0.640625 -5.9375 C 0.742188 -5.976562 0.875 -6 1.03125 -6 C 1.195312 -6 1.328125 -5.984375 1.421875 -5.953125 C 1.523438 -5.921875 1.59375 -5.882812 1.625 -5.84375 C 1.644531 -5.832031 1.707031 -5.765625 1.8125 -5.640625 C 2.96875 -4.066406 3.738281 -3.03125 4.125 -2.53125 L 4.125 -5.296875 C 4.125 -5.503906 4.148438 -5.65625 4.203125 -5.75 Z M 4.203125 -5.75 "/></g></g></g><g fill="rgb(85.879517%, 58.039856%, 40.779114%)" fill-opacity="1"><g transform="translate(8.379128, 17.244752)"><g><path d="M 4.25 -5.78125 C 4.300781 -5.863281 4.378906 -5.921875 4.484375 -5.953125 C 4.585938 -5.992188 4.71875 -6.015625 4.875 -6.015625 C 5.03125 -6.015625 5.15625 -6 5.25 -5.96875 C 5.34375 -5.9375 5.410156 -5.898438 5.453125 -5.859375 C 5.503906 -5.828125 5.539062 -5.773438 5.5625 -5.703125 C 5.59375 -5.609375 5.609375 -5.460938 5.609375 -5.265625 L 5.609375 -2.796875 C 5.609375 -2.078125 5.382812 -1.421875 4.9375 -0.828125 C 4.726562 -0.554688 4.453125 -0.332031 4.109375 -0.15625 C 3.765625 0.0078125 3.378906 0.09375 2.953125 0.09375 C 2.535156 0.09375 2.15625 0.0078125 1.8125 -0.15625 C 1.476562 -0.332031 1.203125 -0.5625 0.984375 -0.84375 C 0.546875 -1.425781 0.328125 -2.082031 0.328125 -2.8125 L 0.328125 -5.28125 C 0.328125 -5.414062 0.332031 -5.515625 0.34375 -5.578125 C 0.351562 -5.640625 0.378906 -5.707031 0.421875 -5.78125 C 0.460938 -5.863281 0.535156 -5.921875 0.640625 -5.953125 C 0.742188 -5.992188 0.878906 -6.015625 1.046875 -6.015625 C 1.222656 -6.015625 1.363281 -5.992188 1.46875 -5.953125 C 1.570312 -5.921875 1.644531 -5.863281 1.6875 -5.78125 C 1.75 -5.65625 1.78125 -5.484375 1.78125 -5.265625 L 1.78125 -2.8125 C 1.78125 -2.476562 1.863281 -2.160156 2.03125 -1.859375 C 2.113281 -1.710938 2.234375 -1.59375 2.390625 -1.5 C 2.554688 -1.40625 2.753906 -1.359375 2.984375 -1.359375 C 3.378906 -1.359375 3.675781 -1.503906 3.875 -1.796875 C 4.070312 -2.097656 4.171875 -2.441406 4.171875 -2.828125 L 4.171875 -5.328125 C 4.171875 -5.546875 4.195312 -5.695312 4.25 -5.78125 Z M 4.25 -5.78125 "/></g></g></g><g fill="rgb(85.879517%, 58.039856%, 40.779114%)" fill-opacity="1"><g transform="translate(14.444898, 17.244752)"><g><path d="M 0.71875 -6.015625 L 5.265625 -6.015625 C 5.441406 -6.015625 5.570312 -5.992188 5.65625 -5.953125 C 5.738281 -5.910156 5.789062 -5.84375 5.8125 -5.75 C 5.84375 -5.664062 5.859375 -5.550781 5.859375 -5.40625 C 5.859375 -5.269531 5.84375 -5.15625 5.8125 -5.0625 C 5.789062 -4.976562 5.75 -4.921875 5.6875 -4.890625 C 5.582031 -4.847656 5.441406 -4.828125 5.265625 -4.828125 L 3.703125 -4.828125 L 3.703125 -0.703125 C 3.703125 -0.578125 3.695312 -0.484375 3.6875 -0.421875 C 3.675781 -0.359375 3.648438 -0.285156 3.609375 -0.203125 C 3.566406 -0.128906 3.492188 -0.078125 3.390625 -0.046875 C 3.296875 -0.015625 3.160156 0 2.984375 0 C 2.816406 0 2.679688 -0.015625 2.578125 -0.046875 C 2.484375 -0.078125 2.414062 -0.128906 2.375 -0.203125 C 2.332031 -0.285156 2.304688 -0.359375 2.296875 -0.421875 C 2.285156 -0.492188 2.28125 -0.59375 2.28125 -0.71875 L 2.28125 -4.828125 L 0.71875 -4.828125 C 0.539062 -4.828125 0.410156 -4.84375 0.328125 -4.875 C 0.242188 -4.914062 0.1875 -4.976562 0.15625 -5.0625 C 0.132812 -5.15625 0.125 -5.273438 0.125 -5.421875 C 0.125 -5.566406 0.132812 -5.679688 0.15625 -5.765625 C 0.1875 -5.847656 0.234375 -5.90625 0.296875 -5.9375 C 0.398438 -5.988281 0.539062 -6.015625 0.71875 -6.015625 Z M 0.71875 -6.015625 "/></g></g></g><g fill="rgb(85.879517%, 58.039856%, 40.779114%)" fill-opacity="1"><g transform="translate(20.551596, 17.244752)"><g><path d="M 4.921875 -1.015625 C 5.003906 -0.816406 5.046875 -0.675781 5.046875 -0.59375 C 5.046875 -0.382812 4.875 -0.207031 4.53125 -0.0625 C 4.363281 0.0078125 4.222656 0.046875 4.109375 0.046875 C 4.003906 0.046875 3.914062 0.0195312 3.84375 -0.03125 C 3.78125 -0.0820312 3.734375 -0.132812 3.703125 -0.1875 C 3.648438 -0.289062 3.4375 -0.785156 3.0625 -1.671875 L 2.8125 -1.65625 L 1.78125 -1.65625 L 1.78125 -0.734375 C 1.78125 -0.609375 1.773438 -0.515625 1.765625 -0.453125 C 1.753906 -0.390625 1.726562 -0.316406 1.6875 -0.234375 C 1.613281 -0.0859375 1.398438 -0.015625 1.046875 -0.015625 C 0.660156 -0.015625 0.4375 -0.113281 0.375 -0.3125 C 0.34375 -0.40625 0.328125 -0.546875 0.328125 -0.734375 L 0.328125 -5.28125 C 0.328125 -5.40625 0.332031 -5.5 0.34375 -5.5625 C 0.351562 -5.625 0.378906 -5.695312 0.421875 -5.78125 C 0.492188 -5.925781 0.707031 -6 1.0625 -6 L 2.828125 -6 C 3.304688 -6 3.769531 -5.828125 4.21875 -5.484375 C 4.4375 -5.304688 4.617188 -5.070312 4.765625 -4.78125 C 4.910156 -4.5 4.984375 -4.179688 4.984375 -3.828125 C 4.984375 -3.203125 4.773438 -2.691406 4.359375 -2.296875 C 4.484375 -2.003906 4.671875 -1.578125 4.921875 -1.015625 Z M 1.78125 -3.109375 L 2.828125 -3.109375 C 2.984375 -3.109375 3.140625 -3.164062 3.296875 -3.28125 C 3.453125 -3.40625 3.53125 -3.585938 3.53125 -3.828125 C 3.53125 -4.066406 3.453125 -4.242188 3.296875 -4.359375 C 3.140625 -4.484375 2.976562 -4.546875 2.8125 -4.546875 L 1.78125 -4.546875 Z M 1.78125 -3.109375 "/></g></g></g><g fill="rgb(85.879517%, 58.039856%, 40.779114%)" fill-opacity="1"><g transform="translate(25.839699, 17.244752)"><g><path d="M 0.328125 -5.28125 C 0.328125 -5.40625 0.332031 -5.5 0.34375 -5.5625 C 0.351562 -5.625 0.378906 -5.695312 0.421875 -5.78125 C 0.492188 -5.925781 0.707031 -6 1.0625 -6 C 1.4375 -6 1.660156 -5.898438 1.734375 -5.703125 C 1.765625 -5.609375 1.78125 -5.460938 1.78125 -5.265625 L 1.78125 -0.71875 C 1.78125 -0.59375 1.773438 -0.5 1.765625 -0.4375 C 1.753906 -0.375 1.726562 -0.300781 1.6875 -0.21875 C 1.613281 -0.0703125 1.398438 0 1.046875 0 C 0.660156 0 0.4375 -0.101562 0.375 -0.3125 C 0.34375 -0.394531 0.328125 -0.535156 0.328125 -0.734375 Z M 0.328125 -5.28125 "/></g></g></g><g fill="rgb(85.879517%, 58.039856%, 40.779114%)" fill-opacity="1"><g transform="translate(28.060544, 17.244752)"><g/></g></g><g fill="rgb(85.879517%, 58.039856%, 40.779114%)" fill-opacity="1"><g transform="translate(30.254373, 17.244752)"><g/></g></g><g fill="rgb(85.879517%, 58.039856%, 40.779114%)" fill-opacity="1"><g transform="translate(32.44126, 17.244752)"><g><path d="M 4.296875 -6 C 4.421875 -6 4.515625 -5.992188 4.578125 -5.984375 C 4.640625 -5.984375 4.707031 -5.957031 4.78125 -5.90625 C 4.863281 -5.863281 4.921875 -5.789062 4.953125 -5.6875 C 4.992188 -5.582031 5.015625 -5.441406 5.015625 -5.265625 C 5.015625 -5.097656 4.992188 -4.960938 4.953125 -4.859375 C 4.921875 -4.753906 4.863281 -4.679688 4.78125 -4.640625 C 4.707031 -4.597656 4.640625 -4.570312 4.578125 -4.5625 C 4.515625 -4.550781 4.414062 -4.546875 4.28125 -4.546875 L 1.78125 -4.546875 L 1.78125 -3.71875 L 3.390625 -3.71875 C 3.523438 -3.71875 3.625 -3.710938 3.6875 -3.703125 C 3.75 -3.703125 3.816406 -3.679688 3.890625 -3.640625 C 4.035156 -3.554688 4.109375 -3.335938 4.109375 -2.984375 C 4.109375 -2.609375 4.003906 -2.382812 3.796875 -2.3125 C 3.710938 -2.28125 3.570312 -2.265625 3.375 -2.265625 L 1.78125 -2.265625 L 1.78125 -0.71875 C 1.78125 -0.59375 1.773438 -0.5 1.765625 -0.4375 C 1.753906 -0.375 1.726562 -0.300781 1.6875 -0.21875 C 1.613281 -0.0703125 1.398438 0 1.046875 0 C 0.660156 0 0.4375 -0.101562 0.375 -0.3125 C 0.34375 -0.394531 0.328125 -0.535156 0.328125 -0.734375 L 0.328125 -5.28125 C 0.328125 -5.5625 0.378906 -5.75 0.484375 -5.84375 C 0.585938 -5.945312 0.785156 -6 1.078125 -6 Z M 4.296875 -6 "/></g></g></g><g fill="rgb(85.879517%, 58.039856%, 40.779114%)" fill-opacity="1"><g transform="translate(37.778482, 17.244752)"><g><path d="M 3.140625 -6.078125 C 3.953125 -6.078125 4.65625 -5.785156 5.25 -5.203125 C 5.84375 -4.617188 6.140625 -3.894531 6.140625 -3.03125 C 6.140625 -2.164062 5.851562 -1.425781 5.28125 -0.8125 C 4.71875 -0.207031 4.019531 0.09375 3.1875 0.09375 C 2.363281 0.09375 1.660156 -0.203125 1.078125 -0.796875 C 0.492188 -1.398438 0.203125 -2.117188 0.203125 -2.953125 C 0.203125 -3.398438 0.285156 -3.820312 0.453125 -4.21875 C 0.617188 -4.613281 0.835938 -4.941406 1.109375 -5.203125 C 1.378906 -5.472656 1.691406 -5.6875 2.046875 -5.84375 C 2.398438 -6 2.765625 -6.078125 3.140625 -6.078125 Z M 1.65625 -2.984375 C 1.65625 -2.503906 1.8125 -2.109375 2.125 -1.796875 C 2.4375 -1.492188 2.785156 -1.34375 3.171875 -1.34375 C 3.566406 -1.34375 3.914062 -1.488281 4.21875 -1.78125 C 4.53125 -2.082031 4.6875 -2.476562 4.6875 -2.96875 C 4.6875 -3.46875 4.53125 -3.867188 4.21875 -4.171875 C 3.90625 -4.472656 3.554688 -4.625 3.171875 -4.625 C 2.785156 -4.625 2.4375 -4.472656 2.125 -4.171875 C 1.8125 -3.867188 1.65625 -3.472656 1.65625 -2.984375 Z M 1.65625 -2.984375 "/></g></g></g><g fill="rgb(85.879517%, 58.039856%, 40.779114%)" fill-opacity="1"><g transform="translate(44.240414, 17.244752)"><g/></g></g><g fill="rgb(85.879517%, 58.039856%, 40.779114%)" fill-opacity="1"><g transform="translate(46.434243, 17.244752)"><g/></g></g><g fill="rgb(85.879517%, 58.039856%, 40.779114%)" fill-opacity="1"><g transform="translate(48.628072, 17.244752)"><g/></g></g><g fill="rgb(85.879517%, 58.039856%, 40.779114%)" fill-opacity="1"><g transform="translate(50.8219, 17.244752)"><g/></g></g><g fill="rgb(85.879517%, 58.039856%, 40.779114%)" fill-opacity="1"><g transform="translate(53.012504, 17.244752)"><g><path d="M 1.0625 -6.015625 L 2.578125 -6 C 3.367188 -6 4.0625 -5.710938 4.65625 -5.140625 C 5.257812 -4.578125 5.5625 -3.878906 5.5625 -3.046875 C 5.5625 -2.210938 5.265625 -1.5 4.671875 -0.90625 C 4.085938 -0.3125 3.378906 -0.015625 2.546875 -0.015625 L 1.046875 -0.015625 C 0.710938 -0.015625 0.503906 -0.0820312 0.421875 -0.21875 C 0.359375 -0.332031 0.328125 -0.503906 0.328125 -0.734375 L 0.328125 -5.296875 C 0.328125 -5.421875 0.332031 -5.515625 0.34375 -5.578125 C 0.351562 -5.640625 0.378906 -5.707031 0.421875 -5.78125 C 0.492188 -5.9375 0.707031 -6.015625 1.0625 -6.015625 Z M 2.578125 -1.453125 C 2.960938 -1.453125 3.3125 -1.597656 3.625 -1.890625 C 3.945312 -2.179688 4.109375 -2.546875 4.109375 -2.984375 C 4.109375 -3.429688 3.953125 -3.800781 3.640625 -4.09375 C 3.335938 -4.394531 2.976562 -4.546875 2.5625 -4.546875 L 1.78125 -4.546875 L 1.78125 -1.453125 Z M 2.578125 -1.453125 "/></g></g></g><g fill="rgb(85.879517%, 58.039856%, 40.779114%)" fill-opacity="1"><g transform="translate(58.896092, 17.244752)"><g/></g></g><g clip-path="url(#id2)"><path fill="rgb(92.939758%, 63.919067%, 19.60907%)" d="M 47.953125 10.738281 C 45.957031 10.738281 44.335938 12.363281 44.335938 14.371094 C 44.335938 16.289062 45.8125 17.855469 47.6875 17.996094 C 47.683594 17.441406 47.679688 16.832031 47.675781 16.769531 C 47.675781 16.742188 47.675781 16.714844 47.671875 16.691406 C 47.671875 16.683594 47.671875 16.675781 47.671875 16.667969 C 47.667969 16.605469 47.664062 16.546875 47.660156 16.5 C 47.5 16.4375 47.351562 16.332031 47.222656 16.1875 L 47.21875 16.1875 C 47.195312 16.160156 47.175781 16.132812 47.152344 16.105469 C 47.148438 16.097656 47.144531 16.09375 47.140625 16.085938 C 47.121094 16.058594 47.101562 16.03125 47.082031 16.003906 C 47.078125 15.996094 47.070312 15.984375 47.066406 15.976562 C 47.046875 15.949219 47.03125 15.921875 47.015625 15.890625 C 47.007812 15.882812 47.003906 15.871094 47 15.863281 C 46.964844 15.796875 46.933594 15.730469 46.90625 15.65625 L 46.902344 15.652344 C 46.894531 15.628906 46.886719 15.605469 46.878906 15.582031 C 46.871094 15.558594 46.859375 15.53125 46.851562 15.507812 C 46.847656 15.484375 46.839844 15.464844 46.835938 15.441406 C 46.828125 15.414062 46.820312 15.386719 46.8125 15.355469 C 46.808594 15.335938 46.804688 15.3125 46.796875 15.292969 C 46.792969 15.261719 46.785156 15.230469 46.78125 15.199219 C 46.777344 15.175781 46.773438 15.15625 46.773438 15.132812 C 46.765625 15.097656 46.761719 15.0625 46.757812 15.027344 C 46.757812 15.007812 46.753906 14.992188 46.753906 14.972656 C 46.75 14.917969 46.746094 14.863281 46.746094 14.804688 L 46.75 14.804688 C 46.746094 14.792969 46.746094 14.78125 46.75 14.765625 C 46.820312 13.875 46.898438 12.980469 46.96875 12.089844 C 46.984375 11.917969 47.03125 11.78125 47.074219 11.78125 C 47.117188 11.785156 47.160156 11.921875 47.164062 12.09375 C 47.167969 12.160156 47.171875 12.226562 47.171875 12.289062 C 47.207031 13.117188 47.238281 13.949219 47.269531 14.777344 C 47.269531 14.789062 47.269531 14.796875 47.265625 14.804688 L 47.378906 14.804688 C 47.378906 14.792969 47.378906 14.78125 47.378906 14.769531 C 47.441406 13.878906 47.503906 12.984375 47.566406 12.09375 C 47.578125 11.921875 47.621094 11.78125 47.664062 11.78125 C 47.707031 11.78125 47.75 11.921875 47.761719 12.09375 C 47.808594 12.988281 47.851562 13.878906 47.898438 14.773438 C 47.898438 14.785156 47.898438 14.796875 47.898438 14.804688 L 48.007812 14.804688 C 48.007812 14.792969 48.007812 14.78125 48.007812 14.769531 C 48.066406 13.878906 48.125 12.984375 48.183594 12.09375 C 48.195312 11.921875 48.238281 11.78125 48.28125 11.78125 C 48.324219 11.78125 48.367188 11.921875 48.378906 12.09375 C 48.429688 12.984375 48.480469 13.878906 48.53125 14.773438 C 48.53125 14.785156 48.527344 14.796875 48.527344 14.804688 L 48.640625 14.804688 C 48.640625 14.796875 48.640625 14.789062 48.640625 14.777344 C 48.671875 13.882812 48.707031 12.988281 48.742188 12.09375 C 48.75 11.921875 48.789062 11.785156 48.832031 11.78125 C 48.875 11.78125 48.921875 11.917969 48.9375 12.089844 C 49.011719 12.980469 49.085938 13.875 49.160156 14.765625 C 49.160156 14.78125 49.160156 14.792969 49.160156 14.804688 C 49.152344 15.625 48.765625 16.308594 48.246094 16.5 C 48.242188 16.574219 48.234375 16.667969 48.230469 16.769531 C 48.230469 16.832031 48.226562 17.441406 48.222656 17.996094 C 50.09375 17.855469 51.570312 16.289062 51.570312 14.371094 C 51.570312 12.363281 49.953125 10.738281 47.953125 10.738281 " fill-opacity="1" fill-rule="nonzero"/></g></svg>